<?xml version="1.0" encoding="iso-8859-1"?>
<!-- Generator: Adobe Illustrator 19.0.0, SVG Export Plug-In . SVG Version: 6.00 Build 0)  -->
<svg version="1.1" id="Capa_1" xmlns="http://www.w3.org/2000/svg" xmlns:xlink="http://www.w3.org/1999/xlink" x="0px" y="0px"
	 viewBox="0 0 512 512" style="enable-background:new 0 0 512 512;" xml:space="preserve">
<path style="fill:#E6AF78;" d="M141.722,325.247l-29.994-11.248c-5.701-2.138-9.479-7.588-9.479-13.678v-11.787h-43.82v11.788
	c0,6.089-3.777,11.539-9.478,13.677l-29.994,11.248C7.554,329.523,0,340.423,0,352.601v52.79c0,8.067,6.54,14.607,14.607,14.607
	h146.071v-67.397C160.678,340.423,153.124,329.523,141.722,325.247z"/>
<path style="fill:#D29B6E;" d="M80.339,310.445c8.201,0,16.023-1.577,23.269-4.333c-0.793-1.811-1.359-3.73-1.359-5.791v-11.787
	h-43.82v11.788c0,2.06-0.565,3.979-1.359,5.789C64.316,308.868,72.138,310.445,80.339,310.445z"/>
<path style="fill:#DBD9DC;" d="M14.607,419.999h146.071v-67.397c0-12.178-7.554-23.078-18.957-27.354l-28.848-10.818l-22.205,22.205
	c-5.704,5.704-14.953,5.704-20.658,0L47.805,314.43l-28.849,10.818C7.554,329.523,0,340.423,0,352.601v52.79
	C0,413.459,6.54,419.999,14.607,419.999z"/>
<path style="fill:#F0C087;" d="M80.621,295.838h-0.564c-28.08,0-50.843-22.763-50.843-50.843V222.52
	c0-28.08,22.763-50.843,50.843-50.843h0.564c28.08,0,50.843,22.763,50.843,50.843v22.474
	C131.464,273.074,108.701,295.838,80.621,295.838z"/>
<path style="fill:#E6AF78;" d="M58.429,244.713v-21.911c0-23.156,15.405-42.692,36.518-48.98c-4.631-1.379-9.528-2.145-14.607-2.145
	c-28.235,0-51.125,22.889-51.125,51.125v21.911c0,28.235,22.89,51.125,51.125,51.125c5.08,0,9.976-0.766,14.607-2.145
	C73.833,287.404,58.429,267.868,58.429,244.713z"/>
<g>
	<path style="fill:#EDEBED;" d="M22.797,355.152L4.611,336.967C1.699,341.549,0,346.919,0,352.601v52.79
		c0,8.067,6.54,14.607,14.607,14.607h14.607v-49.353C29.214,364.834,26.906,359.261,22.797,355.152z"/>
	<path style="fill:#EDEBED;" d="M73.036,338.892v81.107h14.607v-81.107C83.127,341.513,77.551,341.513,73.036,338.892z"/>
</g>
<circle style="fill:#6E4B53;" cx="80.34" cy="171.68" r="29.21"/>
<path style="fill:#5C414B;" d="M29.214,222.802v16.39c8.09-3.832,17.998-9.874,25.58-18.865c2.215-2.627,6.004-3.169,9-1.486
	c9.628,5.409,32.206,15.711,67.67,18.042v-14.081c0-28.236-22.889-51.125-51.125-51.125l0,0
	C52.104,171.677,29.214,194.566,29.214,222.802z"/>
<path style="fill:#503441;" d="M52.428,179.999c-13.967,9.126-23.214,24.873-23.214,42.802v16.39
	c8.089-3.831,17.999-9.874,25.58-18.865c1.162-1.378,2.759-2.146,4.445-2.356C53.829,207.689,49.603,194.28,52.428,179.999z"/>
<path style="fill:#FAD7A5;" d="M495.957,307.047l-36.718-16.999c-4.878-2.258-8.021-7.297-8.021-12.858v-26.031H397.19v26.031
	c0,5.56-3.143,10.599-8.021,12.857l-36.719,17c-9.756,4.516-16.043,14.594-16.043,25.714v87.238h162.085
	c7.46,0,13.507-6.299,13.507-14.07v-73.167C512,321.641,505.713,311.563,495.957,307.047z"/>
<path style="fill:#DBD9DC;" d="M495.957,307.046l-36.468-16.883l-25.734,25.734c-5.275,5.275-13.827,5.275-19.102,0l-25.734-25.735
	l-36.469,16.884c-9.756,4.517-16.043,14.594-16.043,25.715v87.238l162.086-0.001c7.46,0,13.507-6.299,13.507-14.07v-73.167
	C512,321.64,505.713,311.563,495.957,307.046z"/>
<path style="fill:#F0C891;" d="M397.19,251.159v26.031c0,2.577-0.735,5.008-1.946,7.136c8.614,4.688,18.482,7.354,28.96,7.354
	s20.345-2.665,28.959-7.353c-1.211-2.128-1.946-4.56-1.946-7.137v-26.031H397.19z"/>
<path style="fill:#FFE1B4;" d="M424.204,278.173L424.204,278.173c-26.109,0-47.275-21.166-47.275-47.275v-40.522h94.55v40.522
	C471.479,257.007,450.314,278.173,424.204,278.173z"/>
<path style="fill:#FAD7A5;" d="M403.943,230.898v-40.522h-27.014v40.522c0,26.109,21.166,47.275,47.275,47.275
	c4.697,0,9.225-0.708,13.507-1.984C418.188,270.375,403.943,252.31,403.943,230.898z"/>
<path style="fill:#D59F63;" d="M430.958,156.609h-13.507c-26.109,0-47.275,21.166-47.275,47.275v10.804
	c0,5.005,5.31,8.403,9.737,6.068c6.852-3.614,14.888-10.356,20.288-17.629c2.181-2.937,6.375-3.373,9.307-1.185
	c21.43,15.992,51.279,12.316,63.346,9.932c3.145-0.621,5.379-3.409,5.379-6.614v-1.377
	C478.233,177.774,457.067,156.609,430.958,156.609z"/>
<path style="fill:#CD915A;" d="M379.913,220.756c6.852-3.614,14.888-10.356,20.288-17.629c0.826-1.113,1.979-1.748,3.205-2.136
	c-9.548-13.291-10.199-28.107-9.013-38.358c-14.442,8.09-24.218,23.52-24.218,41.251v10.804
	C370.175,219.692,375.485,223.09,379.913,220.756z"/>
<g>
	<path style="fill:#EDEBED;" d="M478.232,360.855c0-5.374,2.134-10.527,5.934-14.327l25.402-25.402
		c1.566,3.588,2.432,7.538,2.432,11.635v73.167c0,7.771-6.047,14.07-13.507,14.07h-20.261L478.232,360.855L478.232,360.855z"/>
	<path style="fill:#EDEBED;" d="M417.451,317.985v102.014h13.507V317.985C426.782,320.409,421.626,320.409,417.451,317.985z"/>
</g>
<path style="fill:#B48764;" d="M341.659,279.34l-45.724-21.169c-6.074-2.812-9.989-9.087-9.989-16.011v-32.416l-67.28,0.001v32.416
	c0,6.924-3.914,13.198-9.989,16.01l-45.725,21.169c-12.149,5.624-19.978,18.174-19.978,32.022v91.115
	c0,9.677,7.531,17.521,16.82,17.521h185.023c9.29,0,16.82-7.845,16.82-17.521v-91.114
	C361.637,297.515,353.808,284.965,341.659,279.34z"/>
<path style="fill:#5D5360;" d="M159.794,419.999l185.023-0.001c9.29,0,16.82-7.845,16.82-17.521v-91.114
	c0-13.849-7.83-26.398-19.978-32.023l-45.413-21.024L264.2,290.362c-6.569,6.569-17.219,6.569-23.788,0l-32.047-32.047
	l-45.414,21.025c-12.149,5.624-19.978,18.173-19.978,32.022v91.115C142.973,412.154,150.504,419.999,159.794,419.999z"/>
<path style="fill:#966D50;" d="M218.665,209.744v32.416c0,3.209-0.916,6.237-2.423,8.887c10.727,5.838,23.015,9.158,36.064,9.158
	c13.048,0,25.335-3.319,36.063-9.157c-1.508-2.65-2.423-5.679-2.423-8.888v-32.416L218.665,209.744z"/>
<path style="fill:#C39772;" d="M252.306,243.385L252.306,243.385c-32.514,0-58.871-26.358-58.871-58.871v-50.461h117.743v50.461
	C311.177,217.027,284.819,243.385,252.306,243.385z"/>
<path style="fill:#B48764;" d="M227.075,184.513v-50.461h-33.641v50.461c0,32.514,26.358,58.871,58.871,58.871
	c5.849,0,11.488-0.882,16.82-2.47C244.814,233.673,227.075,211.178,227.075,184.513z"/>
<path style="fill:#5C414B;" d="M260.716,92.001h-16.82c-32.514,0-58.871,26.358-58.871,58.871v13.454
	c0,6.232,6.613,10.464,12.125,7.557c8.532-4.5,18.54-12.896,25.265-21.953c2.716-3.658,7.938-4.2,11.59-1.475
	c26.687,19.914,63.858,15.337,78.885,12.369c3.916-0.773,6.699-4.245,6.699-8.236v-1.715
	C319.587,118.359,293.229,92.001,260.716,92.001z"/>
<path style="fill:#503441;" d="M197.15,171.883c8.532-4.5,18.539-12.896,25.264-21.953c1.029-1.386,2.464-2.177,3.992-2.66
	c-11.89-16.551-12.701-35.001-11.224-47.767c-17.985,10.075-30.158,29.289-30.158,51.37v13.454
	C185.024,170.559,191.637,174.791,197.15,171.883z"/>
<g>
	<path style="fill:#6F6571;" d="M185.024,346.347c0-6.692-2.658-13.109-7.39-17.841l-31.633-31.633
		c-1.95,4.468-3.028,9.387-3.028,14.488v91.115c0,9.677,7.531,17.522,16.82,17.522h25.231V346.347z"/>
	<path style="fill:#6F6571;" d="M319.586,346.347c0-6.692,2.658-13.109,7.39-17.841l31.633-31.633
		c1.95,4.468,3.028,9.387,3.028,14.488v91.115c0,9.677-7.531,17.522-16.82,17.522h-25.231L319.586,346.347L319.586,346.347z"/>
	<path style="fill:#6F6571;" d="M243.895,292.962v127.037l16.82-0.001V292.962C255.516,295.98,249.095,295.98,243.895,292.962z"/>
</g>
<g>
</g>
<g>
</g>
<g>
</g>
<g>
</g>
<g>
</g>
<g>
</g>
<g>
</g>
<g>
</g>
<g>
</g>
<g>
</g>
<g>
</g>
<g>
</g>
<g>
</g>
<g>
</g>
<g>
</g>
</svg>
