<?xml version="1.0" encoding="iso-8859-1"?>
<!-- Generator: Adobe Illustrator 19.0.0, SVG Export Plug-In . SVG Version: 6.00 Build 0)  -->
<svg version="1.1" id="Capa_1" xmlns="http://www.w3.org/2000/svg" xmlns:xlink="http://www.w3.org/1999/xlink" x="0px" y="0px"
	 viewBox="0 0 511.999 511.999" style="enable-background:new 0 0 511.999 511.999;" xml:space="preserve">
<path style="fill:#EC5569;" d="M398.782,179.109L398.782,179.109c-32.424-32.467-85.029-32.502-117.496-0.078l-18.339,18.315
	c-4.373,4.367-11.458,4.363-15.825-0.01l-18.022-18.046c-32.424-32.467-85.029-32.502-117.495-0.078l0,0
	c-92.615,92.615,135.374,296.021,135.374,296.021c4.367,4.373,11.452,4.378,15.825,0.01
	C262.802,475.242,496.116,260.385,398.782,179.109z"/>
<path style="fill:#E63950;" d="M141.666,179.212L141.666,179.212c12.375-12.359,27.679-19.987,43.672-22.916
	c-25.927-4.745-53.674,2.881-73.736,22.916l0,0c-92.615,92.615,135.374,296.021,135.374,296.021
	c4.367,4.373,11.452,4.378,15.825,0.011c0,0,2.561-2.36,7.023-6.665C231.764,432.818,58.998,261.881,141.666,179.212z"/>
<path style="fill:#B5D3E3;" d="M421.288,247.861c17.523,9.114,26.952,19.456,26.952,30.882c0,33.381-86.069,60.442-192.24,60.442
	S63.76,312.124,63.76,278.743c0-11.318,9.304-21.598,26.522-30.655c-0.4-3.084-0.607-6.317-0.62-9.7
	c-50.44,14.298-82.147,35.004-82.147,58.039c0,43.149,111.25,78.128,248.485,78.128s248.485-34.978,248.485-78.128
	c0-23.059-31.654-43.784-82.188-58.084C422.101,241.413,421.753,244.594,421.288,247.861z"/>
<g>
	<path style="fill:#8ABBD5;" d="M448.239,278.743c0,31.791-78.063,57.848-177.208,60.26c4.96,0.12,9.972,0.183,15.032,0.183
		c106.171,0,192.24-27.061,192.24-60.442c0-11.03-8.808-21.045-25.177-29.924c-9.247-3.781-19.565-7.289-30.829-10.476
		c-0.195,3.07-0.543,6.252-1.009,9.517C438.81,256.974,448.239,267.317,448.239,278.743z"/>
	<path style="fill:#8ABBD5;" d="M37.579,296.427c0-17.842,19.035-34.285,51.054-47.437c0.549-0.301,1.083-0.603,1.649-0.901
		c-0.4-3.083-0.607-6.317-0.62-9.7c-50.44,14.297-82.147,35.003-82.147,58.038c0,43.149,111.25,78.128,248.485,78.128
		c5.048,0,10.058-0.053,15.032-0.146C140.799,371.963,37.579,337.988,37.579,296.427z"/>
</g>
<path style="fill:#F7CF69;" d="M165.728,113.854l13.889,19.015c0.386,0.496,0.827,0.992,1.378,1.378l19.015,13.889
	c3.417,2.48,3.417,7.606,0,10.142l-19.015,13.889c-0.496,0.386-0.992,0.827-1.378,1.378l-13.889,19.015
	c-2.48,3.417-7.607,3.417-10.142,0l-13.889-19.015c-0.386-0.496-0.827-0.992-1.378-1.378l-19.015-13.889
	c-3.417-2.48-3.417-7.606,0-10.142l19.015-13.889c0.496-0.386,0.992-0.827,1.378-1.378l13.889-19.015
	C158.121,110.382,163.192,110.382,165.728,113.854z"/>
<path style="fill:#FFB64C;" d="M171.76,173.545c-0.386-0.496-0.827-0.992-1.378-1.378l-19.015-13.889
	c-3.417-2.48-3.417-7.607,0-10.142l19.015-13.889c0.496-0.386,0.992-0.827,1.378-1.378l3.928-5.378l-9.961-13.637
	c-2.535-3.472-7.607-3.472-10.142,0l-13.889,19.015c-0.386,0.551-0.882,0.992-1.378,1.378l-19.015,13.889
	c-3.417,2.535-3.417,7.662,0,10.142l19.015,13.889c0.551,0.386,0.992,0.882,1.378,1.378l13.889,19.015
	c2.535,3.417,7.661,3.417,10.142,0l9.961-13.637L171.76,173.545z"/>
<g>
	<path style="fill:#B5D3E3;" d="M440.788,415.677l9.907,13.564c0.276,0.354,0.59,0.707,0.983,0.983l13.564,9.907
		c2.437,1.77,2.437,5.425,0,7.234l-13.564,9.907c-0.354,0.276-0.707,0.59-0.983,0.983l-9.907,13.564
		c-1.77,2.437-5.425,2.437-7.234,0l-9.907-13.564c-0.276-0.354-0.59-0.707-0.983-0.983l-13.564-9.907
		c-2.437-1.77-2.437-5.425,0-7.234l13.564-9.907c0.354-0.276,0.707-0.59,0.983-0.983l9.907-13.564
		C435.362,413.2,438.98,413.2,440.788,415.677z"/>
	<ellipse style="fill:#B5D3E3;" cx="65.106" cy="61.903" rx="29.546" ry="29.546"/>
</g>
<path style="fill:#8ABBD5;" d="M71.717,79.866c-9.924-12.952-7.47-31.497,5.482-41.422c0.952-0.729,1.937-1.384,2.943-1.98
	c-10.069-5.948-23.154-5.569-33.006,1.98c-12.952,9.924-15.406,28.469-5.482,41.422c9.195,12.001,25.788,14.982,38.479,7.462
	C76.964,85.457,74.091,82.966,71.717,79.866z"/>
<circle style="fill:#F7CF69;" cx="440.189" cy="75.544" r="36.646"/>
<path style="fill:#FFB64C;" d="M433.61,75.541c0-14.88,8.874-27.68,21.614-33.419c-4.588-2.067-9.673-3.227-15.032-3.227
	c-20.239,0-36.646,16.407-36.646,36.646s16.407,36.646,36.646,36.646c5.359,0,10.443-1.159,15.032-3.227
	C442.484,103.22,433.61,90.421,433.61,75.541z"/>
<ellipse style="fill:#F7CF69;" cx="64.013" cy="346.495" rx="22.362" ry="22.362"/>
<path d="M430.031,232.774c0.018-1.249,0.018-2.489-0.012-3.716c-0.55-22.678-9.35-41.348-26.158-55.499
	c-35.32-35.108-92.617-35.067-127.885,0.153l-18.339,18.314c-1.434,1.434-3.765,1.431-5.198-0.003l-18.022-18.046
	c-7.311-7.321-15.66-13.224-24.706-17.599c0.254-1.061,0.384-2.156,0.379-3.266c-0.023-4.368-2.14-8.502-5.646-11.047
	l-18.867-13.781l-13.78-18.866c-2.638-3.613-6.699-5.687-11.139-5.687l0,0c-4.441,0-8.501,2.073-11.14,5.687l-13.78,18.866
	l-18.911,13.813c-3.529,2.618-5.623,6.806-5.6,11.201c0.023,4.368,2.14,8.502,5.646,11.046l0.338,0.247
	c-3.84,2.79-7.496,5.886-10.919,9.304c-7.147,7.147-12.716,15.101-16.723,23.799c-0.018,0.034-0.039,0.064-0.057,0.098
	c-0.059,0.114-0.104,0.231-0.157,0.348c-4.755,10.493-7.226,22.075-7.382,34.667C29.05,248.748,0,271.236,0,296.427
	c0,16.415,11.854,31.424,34.69,44.355c-0.114,0.59-0.217,1.184-0.297,1.786c-1.047,7.911,1.049,15.757,5.903,22.091
	c4.854,6.335,11.883,10.4,19.795,11.447c1.332,0.176,2.66,0.264,3.982,0.264c6.527,0,12.841-2.129,18.11-6.167
	c2.927-2.243,5.363-4.955,7.247-7.999c16.692,4.65,35.012,8.538,54.537,11.604c6.081,8.069,12.595,16.301,19.561,24.701
	c37.696,45.453,75.592,79.767,78.293,82.196c3.627,3.544,8.349,5.317,13.072,5.316c4.736,0,9.472-1.783,13.104-5.347
	c2.344-2.172,42.266-39.372,81.364-87.399c5.213-6.404,10.171-12.698,14.882-18.886c25.524-3.84,49.08-9.062,69.714-15.55
	c51.054-16.053,78.04-37.635,78.04-62.414C512,271.194,482.951,248.694,430.031,232.774z M429.451,344.502
	C383.229,359.035,321.629,367.039,256,367.039c-60.418,0-117.411-6.788-162.146-19.204c0.329-7.024-1.8-13.871-6.127-19.518
	c-4.854-6.335-11.883-10.4-19.795-11.447c-7.907-1.044-15.756,1.049-22.091,5.903c-1.692,1.297-3.217,2.753-4.57,4.335
	c-16.865-9.78-26.24-20.445-26.24-30.681c0-15.258,20.141-31.072,54.934-43.805c-9.119,7.946-13.719,16.687-13.719,26.12
	c0,44.14,102.918,67.958,199.755,67.958c52.092,0,101.169-6.41,138.187-18.049c40.277-12.664,61.567-29.922,61.567-49.909
	c0-9.464-4.62-18.226-13.778-26.182c34.829,12.73,54.992,28.566,54.992,43.867C496.969,313.236,471.729,331.209,429.451,344.502z
	 M257.492,469.926c-1.434,1.432-3.766,1.431-5.198-0.003l-0.314-0.297c-0.384-0.343-38.799-34.768-77.008-80.865
	c-3.19-3.848-6.438-7.853-9.709-11.99c28.579,3.48,59.226,5.299,90.736,5.299c30.123,0,59.45-1.667,86.943-4.853
	c-40.999,51.453-84.399,91.731-85.232,92.499L257.492,469.926z M73.042,358.272c-3.147,2.412-7.043,3.454-10.977,2.933
	c-3.931-0.521-7.425-2.541-9.837-5.689c-2.412-3.148-3.453-7.046-2.933-10.978c0.521-3.931,2.54-7.424,5.689-9.836
	c2.618-2.006,5.756-3.064,8.999-3.064c0.656,0,1.317,0.043,1.979,0.13c3.931,0.521,7.424,2.54,9.836,5.689
	c2.412,3.147,3.453,7.046,2.933,10.977C78.21,352.367,76.19,355.861,73.042,358.272z M127.103,153.208l17.649-12.891
	c0.06-0.043,0.12-0.088,0.178-0.134c0.761-0.59,1.879-1.532,2.87-2.926l12.856-17.601l12.891,17.648
	c0.044,0.062,0.09,0.122,0.137,0.182c0.591,0.76,1.533,1.876,2.924,2.866l17.602,12.857L176.562,166.1
	c-0.06,0.043-0.12,0.088-0.178,0.134c-0.76,0.59-1.877,1.531-2.869,2.924l-12.858,17.603l-12.891-17.648
	c-0.044-0.06-0.089-0.12-0.135-0.178c-0.59-0.76-1.532-1.878-2.926-2.87L127.103,153.208z M135.736,178.127l13.813,18.911
	c2.604,3.51,6.76,5.6,11.128,5.6c0.024,0,0.048,0,0.072,0c4.368-0.023,8.502-2.14,11.046-5.646l13.78-18.866l13.666-9.981
	c9.069,3.756,17.395,9.3,24.539,16.455l18.022,18.046c3.53,3.535,8.227,5.484,13.223,5.488c0.005,0,0.009,0,0.013,0
	c4.991,0,9.686-1.942,13.218-5.47l18.339-18.315c29.483-29.442,77.424-29.411,106.867,0.071l0.501,0.458
	c13.698,11.438,20.576,26.007,21.027,44.54c0.316,12.964-2.532,27.002-7.666,41.559c-9.878,5.155-20.848,9.466-35.13,13.825
	c-3.97,1.211-6.206,5.411-4.994,9.381c0.988,3.239,3.966,5.324,7.186,5.324c0.727,0,1.465-0.106,2.195-0.33
	c8.317-2.538,15.606-5.075,22.26-7.77c-3.762,7.954-8.054,15.983-12.752,24.003c-35.171,10.496-81.168,16.259-130.092,16.259
	c-50.356,0-97.607-6.105-133.148-17.194c-3.931-7.044-7.566-14.151-10.791-21.255c38.209,14.267,89.619,22.571,141.815,22.571
	c21.883,0,43.417-1.397,64.004-4.151c4.113-0.55,7.002-4.332,6.452-8.445c-0.55-4.113-4.327-7.008-8.445-6.452
	c-19.929,2.666-40.791,4.018-62.01,4.018c-56.832,0-112.393-10.053-149.55-26.968c-2.87-8.468-5.005-16.842-6.211-25.001
	c16.324,7.608,36.277,14.101,58.591,19.006c9.879,2.171,20.268,4.022,30.877,5.498c0.352,0.049,0.7,0.073,1.045,0.073
	c3.692,0,6.911-2.721,7.434-6.48c0.572-4.111-2.297-7.908-6.407-8.479c-10.224-1.423-20.223-3.204-29.723-5.292
	c-24.868-5.467-46.487-12.914-62.894-21.633c0.204-7.114,1.264-13.754,3.215-19.948c24.664,11.332,56.028,19.689,91.395,24.275
	c0.329,0.042,0.653,0.063,0.976,0.063c3.721,0,6.952-2.762,7.443-6.55c0.534-4.116-2.37-7.886-6.486-8.419
	c-33.428-4.334-63.993-12.462-87.14-23.074c2.844-4.72,6.321-9.15,10.473-13.302c4.043-4.037,8.473-7.54,13.189-10.517
	L135.736,178.127z M101.664,306.635c-27.856-12.38-30.388-24.095-30.388-27.892c0-7.203,6.28-13.631,13.616-18.684
	C88.005,274.581,93.601,290.119,101.664,306.635z M426.384,259.56c7.671,5.138,14.34,11.743,14.34,19.183
	c0,3.925-2.708,16.31-33.295,29.147C416.433,290.562,422.757,274.437,426.384,259.56z"/>
<path d="M244.563,239.644c3.073,0.057,6.207,0.085,9.313,0.085c16.798,0,33.504-0.83,49.655-2.466
	c4.129-0.419,7.138-4.105,6.72-8.235s-4.105-7.135-8.235-6.72c-15.649,1.586-31.845,2.39-48.139,2.39
	c-3.015,0-6.056-0.028-9.037-0.082c-4.174-0.076-7.576,3.227-7.652,7.376C237.11,236.142,240.413,239.568,244.563,239.644z"/>
<path d="M254.523,270.301c0.066,4.108,3.418,7.393,7.512,7.393c0.041,0,0.083,0,0.124-0.001
	c37.428-0.605,73.672-5.373,104.811-13.786c4.007-1.082,6.378-5.209,5.295-9.215c-1.082-4.006-5.209-6.379-9.215-5.295
	c-29.958,8.094-64.93,12.681-101.135,13.267C257.766,262.732,254.457,266.151,254.523,270.301z"/>
<path d="M469.674,434.061l-13.186-9.632l-9.632-13.186c-2.259-3.093-5.88-4.94-9.686-4.94c-3.806,0-7.427,1.847-9.686,4.94
	l-9.631,13.185l-13.232,9.666c-3.066,2.276-4.885,5.912-4.865,9.73c0.02,3.799,1.862,7.395,4.91,9.608l13.187,9.632l9.665,13.231
	c2.263,3.05,5.873,4.866,9.668,4.865c0.021,0,0.042,0,0.062,0c3.799-0.02,7.395-1.862,9.608-4.91l9.633-13.187l13.23-9.664
	c3.067-2.276,4.885-5.913,4.865-9.731C474.565,439.869,472.722,436.273,469.674,434.061z M447.06,451.341
	c-1.006,0.784-1.814,1.609-2.465,2.522l-7.424,10.164l-7.454-10.207c-0.045-0.062-0.092-0.124-0.139-0.184
	c-0.783-1.005-1.607-1.812-2.519-2.463l-10.167-7.426l10.207-7.455c0.061-0.044,0.12-0.089,0.179-0.135
	c1.007-0.784,1.817-1.61,2.47-2.526l7.424-10.164l7.455,10.207c0.044,0.061,0.089,0.12,0.135,0.179
	c0.784,1.007,1.61,1.817,2.526,2.47l10.164,7.424l-10.207,7.454C447.183,451.246,447.121,451.294,447.06,451.341z M434.719,420.11
	l0.004,0.006C434.721,420.113,434.72,420.111,434.719,420.11S434.719,420.109,434.719,420.11z"/>
<path d="M440.192,119.702c24.351,0,44.161-19.811,44.161-44.161s-19.81-44.161-44.161-44.161s-44.161,19.81-44.161,44.161
	S415.842,119.702,440.192,119.702z M469.323,75.541c0,16.063-13.068,29.131-29.13,29.131c-16.063,0-29.13-13.069-29.13-29.131
	s13.069-29.131,29.13-29.131C456.254,46.41,469.323,59.478,469.323,75.541z"/>
<path d="M65.148,98.943c7.863,0,15.788-2.487,22.498-7.629c16.221-12.428,19.305-35.737,6.877-51.958
	C82.094,23.135,58.786,20.05,42.565,32.479s-19.306,35.737-6.877,51.958C42.976,93.948,54.001,98.943,65.148,98.943z M51.707,44.41
	c4.671-3.578,10.455-5.121,16.289-4.353c5.833,0.773,11.018,3.77,14.596,8.44c7.388,9.643,5.554,23.497-4.087,30.885
	c-9.644,7.388-23.498,5.553-30.886-4.088l0,0C40.23,65.653,42.065,51.798,51.707,44.41z"/>
<path d="M63.182,476.758c-0.19-0.451-0.421-0.892-0.691-1.303c-0.271-0.411-0.591-0.792-0.932-1.142
	c-0.351-0.341-0.731-0.661-1.142-0.932s-0.852-0.501-1.303-0.691c-0.451-0.19-0.922-0.331-1.403-0.431
	c-0.972-0.19-1.974-0.19-2.936,0c-0.481,0.1-0.952,0.24-1.413,0.431c-0.451,0.19-0.882,0.421-1.293,0.691s-0.792,0.591-1.142,0.932
	c-0.351,0.351-0.661,0.732-0.932,1.142c-0.271,0.411-0.501,0.852-0.691,1.303c-0.19,0.451-0.331,0.922-0.431,1.403
	c-0.1,0.481-0.15,0.982-0.15,1.473c0,0.481,0.05,0.982,0.15,1.463c0.1,0.481,0.24,0.952,0.431,1.403
	c0.19,0.461,0.421,0.892,0.691,1.303c0.271,0.411,0.581,0.792,0.932,1.142c0.351,0.351,0.731,0.661,1.142,0.932
	s0.842,0.501,1.293,0.691c0.461,0.19,0.932,0.331,1.413,0.431c0.481,0.1,0.972,0.15,1.463,0.15c0.491,0,0.982-0.05,1.473-0.15
	c0.481-0.1,0.952-0.24,1.403-0.431c0.451-0.19,0.892-0.421,1.303-0.691s0.792-0.581,1.142-0.932
	c0.341-0.351,0.661-0.732,0.932-1.142c0.271-0.411,0.501-0.842,0.691-1.303c0.19-0.451,0.331-0.922,0.431-1.403
	c0.09-0.481,0.14-0.982,0.14-1.463c0-0.491-0.05-0.992-0.14-1.473C63.513,477.679,63.372,477.208,63.182,476.758z"/>
<path d="M117.824,403.297c-0.19-0.451-0.421-0.892-0.691-1.293c-0.271-0.411-0.591-0.802-0.932-1.142
	c-0.351-0.351-0.731-0.661-1.142-0.932c-0.411-0.271-0.842-0.511-1.303-0.691c-0.451-0.19-0.922-0.341-1.403-0.431
	c-0.972-0.2-1.964-0.2-2.936,0c-0.481,0.09-0.952,0.241-1.403,0.431c-0.461,0.18-0.892,0.421-1.303,0.691
	c-0.411,0.271-0.792,0.581-1.142,0.932c-0.341,0.341-0.661,0.732-0.932,1.142c-0.271,0.401-0.501,0.842-0.691,1.293
	c-0.19,0.461-0.331,0.932-0.431,1.413c-0.1,0.481-0.14,0.972-0.14,1.463c0,0.491,0.04,0.982,0.14,1.473
	c0.1,0.481,0.24,0.952,0.431,1.403c0.19,0.451,0.421,0.892,0.691,1.293c0.271,0.421,0.591,0.802,0.932,1.152
	c0.351,0.341,0.731,0.651,1.142,0.932c0.411,0.271,0.842,0.501,1.303,0.691c0.451,0.18,0.922,0.331,1.403,0.421
	c0.481,0.1,0.982,0.15,1.473,0.15c0.481,0,0.982-0.05,1.463-0.15c0.481-0.09,0.952-0.241,1.403-0.421
	c0.461-0.19,0.892-0.421,1.303-0.691c0.411-0.281,0.792-0.591,1.142-0.932c0.341-0.351,0.661-0.732,0.932-1.152
	c0.271-0.401,0.501-0.842,0.691-1.293s0.331-0.922,0.431-1.403c0.1-0.491,0.14-0.982,0.14-1.473c0-0.491-0.04-0.982-0.14-1.463
	C118.155,404.229,118.014,403.758,117.824,403.297z"/>
<path d="M167.595,463.32c-0.19-0.451-0.421-0.892-0.691-1.303c-0.271-0.411-0.591-0.792-0.932-1.142
	c-1.744-1.744-4.339-2.545-6.784-2.054c-0.481,0.1-0.952,0.24-1.403,0.431c-0.461,0.19-0.892,0.421-1.303,0.691
	s-0.792,0.591-1.142,0.932c-0.341,0.351-0.661,0.732-0.932,1.142c-0.271,0.411-0.501,0.852-0.691,1.303
	c-0.19,0.451-0.331,0.922-0.431,1.403c-0.1,0.481-0.14,0.982-0.14,1.473c0,1.974,0.802,3.918,2.194,5.311
	c0.351,0.351,0.731,0.661,1.142,0.932s0.842,0.501,1.303,0.691c0.451,0.19,0.922,0.331,1.403,0.431c0.481,0.1,0.982,0.15,1.473,0.15
	c1.974,0,3.908-0.802,5.311-2.205c1.393-1.393,2.204-3.337,2.204-5.311c0-0.491-0.05-0.992-0.15-1.473
	C167.926,464.242,167.786,463.771,167.595,463.32z"/>
<path d="M237.759,51.629c0.19,0.451,0.421,0.892,0.691,1.293c0.271,0.411,0.591,0.802,0.932,1.142
	c0.351,0.351,0.731,0.661,1.142,0.942c0.411,0.271,0.852,0.501,1.303,0.691c0.451,0.18,0.922,0.331,1.403,0.421
	c0.491,0.1,0.982,0.15,1.473,0.15c0.491,0,0.982-0.05,1.463-0.15c0.481-0.09,0.952-0.24,1.413-0.421
	c0.451-0.19,0.882-0.421,1.293-0.691c0.411-0.281,0.802-0.591,1.142-0.942c0.351-0.341,0.661-0.731,0.932-1.142
	c0.271-0.401,0.511-0.842,0.691-1.293c0.19-0.451,0.331-0.932,0.431-1.403c0.1-0.491,0.15-0.982,0.15-1.473s-0.05-0.982-0.15-1.463
	c-0.1-0.481-0.24-0.962-0.431-1.413c-0.18-0.451-0.421-0.892-0.691-1.293c-0.271-0.411-0.581-0.802-0.932-1.142
	c-0.341-0.351-0.731-0.661-1.142-0.942c-0.411-0.271-0.842-0.501-1.293-0.681c-0.461-0.19-0.932-0.341-1.413-0.431
	c-0.962-0.2-1.964-0.2-2.936,0c-0.481,0.09-0.952,0.24-1.403,0.431c-0.451,0.18-0.892,0.411-1.303,0.681
	c-0.411,0.281-0.792,0.591-1.142,0.942c-1.393,1.393-2.194,3.337-2.194,5.311c0,0.491,0.05,0.982,0.14,1.473
	C237.428,50.697,237.568,51.178,237.759,51.629z"/>
<path d="M296.54,112.273c0.19,0.451,0.421,0.892,0.691,1.293c0.271,0.411,0.591,0.802,0.932,1.142
	c0.351,0.351,0.731,0.661,1.142,0.942c0.411,0.271,0.842,0.501,1.303,0.681c0.451,0.19,0.922,0.341,1.403,0.431
	c0.481,0.1,0.982,0.15,1.473,0.15s0.982-0.05,1.463-0.15c0.481-0.09,0.952-0.24,1.413-0.431c0.451-0.18,0.882-0.411,1.293-0.681
	c0.411-0.281,0.792-0.591,1.142-0.942c0.351-0.341,0.661-0.731,0.932-1.142c0.271-0.401,0.501-0.842,0.691-1.293
	c0.19-0.451,0.331-0.932,0.431-1.403c0.1-0.491,0.15-0.982,0.15-1.473c0-0.491-0.05-0.982-0.15-1.473
	c-0.1-0.471-0.24-0.952-0.431-1.403c-0.19-0.451-0.421-0.892-0.691-1.293c-0.271-0.421-0.581-0.802-0.932-1.142
	c-0.351-0.351-0.732-0.661-1.142-0.942c-0.411-0.271-0.842-0.501-1.293-0.691c-0.461-0.18-0.932-0.331-1.413-0.421
	c-0.972-0.2-1.964-0.2-2.936,0c-0.481,0.09-0.952,0.24-1.403,0.421c-0.461,0.19-0.892,0.421-1.303,0.691
	c-0.411,0.281-0.792,0.591-1.142,0.942c-0.341,0.341-0.661,0.721-0.932,1.142c-0.271,0.401-0.501,0.842-0.691,1.293
	c-0.19,0.451-0.331,0.932-0.431,1.403c-0.09,0.491-0.14,0.982-0.14,1.473c0,0.491,0.05,0.982,0.14,1.473
	C296.209,111.341,296.348,111.822,296.54,112.273z"/>
<path d="M476.347,166.414c-0.271-0.411-0.591-0.802-0.932-1.142c-1.744-1.754-4.349-2.555-6.784-2.054
	c-0.481,0.09-0.952,0.24-1.403,0.421c-0.461,0.19-0.892,0.421-1.303,0.691c-0.411,0.281-0.792,0.591-1.142,0.942
	c-0.351,0.341-0.661,0.731-0.932,1.142c-0.271,0.401-0.501,0.842-0.691,1.293c-0.19,0.451-0.331,0.932-0.431,1.403
	c-0.1,0.491-0.15,0.982-0.15,1.473c0,1.974,0.802,3.918,2.205,5.311c0.351,0.351,0.732,0.661,1.142,0.942
	c0.411,0.271,0.842,0.501,1.303,0.681c0.451,0.19,0.922,0.341,1.403,0.431c0.481,0.1,0.972,0.15,1.463,0.15
	c0.491,0,0.992-0.05,1.473-0.15c0.481-0.09,0.952-0.24,1.403-0.431c0.451-0.18,0.892-0.411,1.303-0.681
	c0.411-0.281,0.792-0.591,1.142-0.942c0.341-0.341,0.661-0.731,0.932-1.142c0.271-0.401,0.501-0.842,0.691-1.293
	c0.19-0.451,0.331-0.932,0.431-1.403c0.09-0.491,0.14-0.982,0.14-1.473c0-0.491-0.05-0.982-0.14-1.473
	c-0.1-0.471-0.24-0.952-0.431-1.403C476.848,167.255,476.618,166.814,476.347,166.414z"/>
<path d="M48.502,176.654c-0.481,0.09-0.952,0.24-1.403,0.421c-0.461,0.19-0.892,0.421-1.303,0.691
	c-0.411,0.281-0.792,0.591-1.142,0.942c-0.341,0.341-0.661,0.721-0.932,1.142c-0.271,0.401-0.501,0.842-0.691,1.293
	c-0.19,0.451-0.331,0.922-0.431,1.403c-0.1,0.491-0.15,0.982-0.15,1.473s0.05,0.982,0.15,1.463c0.1,0.481,0.24,0.952,0.431,1.413
	c0.19,0.451,0.421,0.892,0.691,1.293c0.271,0.411,0.591,0.802,0.932,1.142c0.351,0.351,0.731,0.661,1.142,0.932
	s0.842,0.511,1.303,0.691c0.451,0.19,0.922,0.341,1.403,0.431c0.481,0.1,0.982,0.15,1.473,0.15c1.974,0,3.908-0.802,5.311-2.204
	c0.341-0.341,0.661-0.731,0.932-1.142c0.271-0.401,0.501-0.842,0.691-1.293c0.19-0.461,0.331-0.932,0.431-1.413
	s0.14-0.972,0.14-1.463c0-1.984-0.802-3.918-2.194-5.311C53.543,176.955,50.937,176.153,48.502,176.654z"/>
<path d="M374.389,404.931c-1.974,0-3.908,0.802-5.311,2.205c-1.403,1.393-2.205,3.337-2.205,5.311c0,0.491,0.05,0.982,0.15,1.463
	c0.09,0.481,0.241,0.952,0.431,1.413c0.18,0.451,0.421,0.892,0.691,1.293c0.271,0.411,0.581,0.802,0.932,1.142
	c1.393,1.403,3.337,2.205,5.311,2.205c0.491,0,0.982-0.05,1.473-0.15c0.481-0.09,0.952-0.24,1.403-0.431
	c0.451-0.18,0.892-0.411,1.303-0.681c0.411-0.281,0.792-0.591,1.132-0.942c0.351-0.341,0.661-0.732,0.942-1.142
	c0.271-0.401,0.501-0.842,0.691-1.293c0.18-0.461,0.331-0.932,0.421-1.413c0.1-0.481,0.15-0.972,0.15-1.463
	c0-1.984-0.802-3.918-2.205-5.311C378.306,405.732,376.373,404.931,374.389,404.931z"/>
<g>
</g>
<g>
</g>
<g>
</g>
<g>
</g>
<g>
</g>
<g>
</g>
<g>
</g>
<g>
</g>
<g>
</g>
<g>
</g>
<g>
</g>
<g>
</g>
<g>
</g>
<g>
</g>
<g>
</g>
</svg>
