<?xml version="1.0"?>
<svg xmlns="http://www.w3.org/2000/svg" id="Layer_1" enable-background="new 0 0 511.533 511.533" height="512px" viewBox="0 0 511.533 511.533" width="512px" class=""><g><g><path d="m255.772 355.628 94.968-69.002 86.477 28.623 22.443 94.978c-7.021 9.229-14.699 18.054-23.039 26.395-27.921 27.92-61.166 48.573-97.439 61.047l-83.416-51.387z" fill="#f6f9f9" data-original="#F6F9F9" class="active-path" style="fill:#F6F9F9"/><path d="m255.767 355.628-94.975-69.003 36.278-111.648h117.393l36.278 111.648z" fill="#135772" data-original="#135772" class="" style="fill:#F788EE" data-old_color="#135772"/><path d="m160.792 286.625 94.974 69.002v90.653l-83.239 51.448c-36.341-12.468-69.649-33.142-97.615-61.108-8.274-8.274-15.894-17.025-22.87-26.173l22.35-95.869z" fill="#f6f9f9" data-original="#F6F9F9" class="active-path" style="fill:#F6F9F9"/><path d="m339.182 497.668c-26.486 9.109-54.583 13.865-83.416 13.865-28.768 0-56.805-4.735-83.239-13.804l83.239-51.448z" fill="#135772" data-original="#135772" class="" style="fill:#F788EE" data-old_color="#135772"/><path d="m197.07 174.977-36.277 111.648-86.401 27.954-74.322-64.57c1.127-51.349 17.306-100.182 46.444-141.422l97.753-7.32z" fill="#ececef" data-original="#ECECEF" class=""/><path d="m314.463 174.977h-117.393l-52.803-73.71 37.201-90.362c23.782-7.183 48.754-10.905 74.299-10.905 25.576 0 50.578 3.73 74.387 10.93l37.863 90.711z" fill="#f6f9f9" data-original="#F6F9F9" class="active-path" style="fill:#F6F9F9"/><path d="m437.217 315.249-86.477-28.623-36.277-111.648 53.553-73.335 97.281 7.34c29.062 41.298 45.148 90.177 46.172 141.555z" fill="#ececef" data-original="#ECECEF" class=""/><g fill="#135772"><path d="m52.042 410.448c-33.754-44.266-52.042-98.064-52.042-154.681 0-1.923.028-3.842.07-5.758l74.322 64.57z" data-original="#135772" class="" style="fill:#F788EE" data-old_color="#135772"/><path d="m46.514 108.587c8.406-11.897 17.887-23.164 28.398-33.675 30.245-30.245 66.732-51.98 106.555-64.008l-37.201 90.362z" data-original="#135772" class="" style="fill:#F788EE" data-old_color="#135772"/><path d="m465.298 108.982-97.281-7.34-37.863-90.712c39.789 12.033 76.244 33.759 106.467 63.982 10.628 10.628 20.202 22.027 28.677 34.07z" data-original="#135772" class="" style="fill:#F788EE" data-old_color="#135772"/><path d="m511.47 250.537c.035 1.741.064 3.483.064 5.23 0 56.522-18.227 110.236-51.873 154.459l-22.443-94.978z" data-original="#135772" class="" style="fill:#F788EE" data-old_color="#135772"/></g><path d="m255.772 355.628 94.968-69.002 86.477 28.623 22.443 94.978c-7.021 9.229-14.699 18.054-23.039 26.395-27.921 27.92-61.166 48.573-97.439 61.047l-83.416-51.387z" fill="#ececef" data-original="#ECECEF" class=""/><path d="m437.217 315.249-86.477-28.623-36.277-111.648 53.553-73.335 97.281 7.34c29.062 41.298 45.148 90.177 46.172 141.555z" fill="#dddddf" data-original="#DDDDDF" class=""/><path d="m465.298 108.982-97.281-7.34-37.863-90.712c39.789 12.033 76.244 33.759 106.467 63.982 10.628 10.628 20.202 22.027 28.677 34.07z" fill="#093f61" data-original="#093F61" class="" style="fill:#E563EF" data-old_color="#093f61"/><path d="m511.47 250.537c.035 1.741.064 3.483.064 5.23 0 56.522-18.227 110.236-51.873 154.459l-22.443-94.978z" fill="#093f61" data-original="#093F61" class="" style="fill:#E563EF" data-old_color="#093f61"/><path d="m255.767 511.533c28.832 0 56.929-4.756 83.416-13.865l-83.416-51.387z" fill="#093f61" data-original="#093F61" class="" style="fill:#E563EF" data-old_color="#093f61"/><path d="m368.017 101.642-37.863-90.712c-23.809-7.2-48.811-10.93-74.387-10.93v174.977h58.697z" fill="#ececef" data-original="#ECECEF" class=""/><path d="m314.463 174.977h-58.696v180.651l94.974-69.003z" fill="#093f61" data-original="#093F61" class="" style="fill:#E563EF" data-old_color="#093f61"/></g></g> </svg>
